<?xml version="1.0" encoding="UTF-8" standalone="no"?>
<!DOCTYPE svg PUBLIC "-//W3C//DTD SVG 1.1//EN"
 "http://www.w3.org/Graphics/SVG/1.1/DTD/svg11.dtd">
<!-- Generated by graphviz version 2.43.0 (0)
 -->
<!-- Title: LessonGeneration Pages: 1 -->
<svg width="2835pt" height="647pt"
 viewBox="0.00 0.00 2835.24 646.50" xmlns="http://www.w3.org/2000/svg" xmlns:xlink="http://www.w3.org/1999/xlink">
<g id="graph0" class="graph" transform="scale(1 1) rotate(0) translate(4 642.5)">
<title>LessonGeneration</title>
<polygon fill="white" stroke="transparent" points="-4,4 -4,-642.5 2831.24,-642.5 2831.24,4 -4,4"/>
<text text-anchor="middle" x="1413.62" y="-625.7" font-family="Helvetica,sans-Serif" font-size="11.00">Dreizunge — lesson generation paths (v42)</text>
<g id="clust1" class="cluster">
<title>cluster_entry</title>
<path fill="none" stroke="#8888aa" stroke-dasharray="5,2" d="M99.5,-227C99.5,-227 243.5,-227 243.5,-227 249.5,-227 255.5,-233 255.5,-239 255.5,-239 255.5,-503 255.5,-503 255.5,-509 249.5,-515 243.5,-515 243.5,-515 99.5,-515 99.5,-515 93.5,-515 87.5,-509 87.5,-503 87.5,-503 87.5,-239 87.5,-239 87.5,-233 93.5,-227 99.5,-227"/>
<text text-anchor="middle" x="171.5" y="-502.2" font-family="Helvetica,sans-Serif" font-size="11.00" fill="#555577">Entry points</text>
</g>
<g id="clust2" class="cluster">
<title>cluster_api</title>
<path fill="none" stroke="#8888aa" stroke-dasharray="5,2" d="M838,-281C838,-281 989,-281 989,-281 995,-281 1001,-287 1001,-293 1001,-293 1001,-449 1001,-449 1001,-455 995,-461 989,-461 989,-461 838,-461 838,-461 832,-461 826,-455 826,-449 826,-449 826,-293 826,-293 826,-287 832,-281 838,-281"/>
<text text-anchor="middle" x="913.5" y="-448.2" font-family="Helvetica,sans-Serif" font-size="11.00" fill="#555577">HTTP endpoints (server.js)</text>
</g>
<g id="clust3" class="cluster">
<title>cluster_core</title>
<path fill="none" stroke="#777799" d="M1127,-415C1127,-415 2200.24,-415 2200.24,-415 2206.24,-415 2212.24,-421 2212.24,-427 2212.24,-427 2212.24,-529 2212.24,-529 2212.24,-535 2206.24,-541 2200.24,-541 2200.24,-541 1127,-541 1127,-541 1121,-541 1115,-535 1115,-529 1115,-529 1115,-427 1115,-427 1115,-421 1121,-415 1127,-415"/>
<text text-anchor="middle" x="1663.62" y="-528.2" font-family="Helvetica,sans-Serif" font-size="11.00" fill="#555577">generate(topic, lang, srcLang, ..., userOpts)</text>
</g>
<g id="clust4" class="cluster">
<title>cluster_gens</title>
<path fill="none" stroke="#8888aa" stroke-dasharray="5,2" d="M2298.24,-103C2298.24,-103 2624.24,-103 2624.24,-103 2630.24,-103 2636.24,-109 2636.24,-115 2636.24,-115 2636.24,-444 2636.24,-444 2636.24,-450 2630.24,-456 2624.24,-456 2624.24,-456 2298.24,-456 2298.24,-456 2292.24,-456 2286.24,-450 2286.24,-444 2286.24,-444 2286.24,-115 2286.24,-115 2286.24,-109 2292.24,-103 2298.24,-103"/>
<text text-anchor="middle" x="2461.24" y="-443.2" font-family="Helvetica,sans-Serif" font-size="11.00" fill="#555577">lesson generators &#160;u2192 &#160;PROMPTS.&lt;section&gt; &#160;u2192 &#160;LLM</text>
</g>
<g id="clust5" class="cluster">
<title>cluster_persist</title>
<path fill="none" stroke="#8888aa" stroke-dasharray="5,2" d="M2669.24,-203C2669.24,-203 2807.24,-203 2807.24,-203 2813.24,-203 2819.24,-209 2819.24,-215 2819.24,-215 2819.24,-323 2819.24,-323 2819.24,-329 2813.24,-335 2807.24,-335 2807.24,-335 2669.24,-335 2669.24,-335 2663.24,-335 2657.24,-329 2657.24,-323 2657.24,-323 2657.24,-215 2657.24,-215 2657.24,-209 2663.24,-203 2669.24,-203"/>
<text text-anchor="middle" x="2738.24" y="-322.2" font-family="Helvetica,sans-Serif" font-size="11.00" fill="#555577">persist</text>
</g>
<!-- web_form -->
<g id="node1" class="node">
<title>web_form</title>
<path fill="#e7ffe7" stroke="#555577" d="M220.5,-379C220.5,-379 122.5,-379 122.5,-379 116.5,-379 110.5,-373 110.5,-367 110.5,-367 110.5,-355 110.5,-355 110.5,-349 116.5,-343 122.5,-343 122.5,-343 220.5,-343 220.5,-343 226.5,-343 232.5,-349 232.5,-355 232.5,-355 232.5,-367 232.5,-367 232.5,-373 226.5,-379 220.5,-379"/>
<text text-anchor="middle" x="171.5" y="-358.5" font-family="Helvetica,sans-Serif" font-size="10.00">Web: generation form</text>
</g>
<!-- api_gen -->
<g id="node6" class="node">
<title>api_gen</title>
<path fill="#dde8ff" stroke="#555577" d="M956.5,-379C956.5,-379 870.5,-379 870.5,-379 864.5,-379 858.5,-373 858.5,-367 858.5,-367 858.5,-355 858.5,-355 858.5,-349 864.5,-343 870.5,-343 870.5,-343 956.5,-343 956.5,-343 962.5,-343 968.5,-349 968.5,-355 968.5,-355 968.5,-367 968.5,-367 968.5,-373 962.5,-379 956.5,-379"/>
<text text-anchor="middle" x="913.5" y="-364" font-family="Helvetica,sans-Serif" font-size="10.00">POST /api/generate</text>
<text text-anchor="middle" x="913.5" y="-353" font-family="Helvetica,sans-Serif" font-size="10.00">(async job)</text>
</g>
<!-- web_form&#45;&gt;api_gen -->
<g id="edge1" class="edge">
<title>web_form&#45;&gt;api_gen</title>
<path fill="none" stroke="#444455" d="M232.74,-361C370.26,-361 706.28,-361 847.89,-361"/>
<polygon fill="#444455" stroke="#444455" points="848.15,-364.5 858.15,-361 848.15,-357.5 848.15,-364.5"/>
</g>
<!-- web_add -->
<g id="node2" class="node">
<title>web_add</title>
<path fill="#e7ffe7" stroke="#555577" d="M227.5,-271C227.5,-271 115.5,-271 115.5,-271 109.5,-271 103.5,-265 103.5,-259 103.5,-259 103.5,-247 103.5,-247 103.5,-241 109.5,-235 115.5,-235 115.5,-235 227.5,-235 227.5,-235 233.5,-235 239.5,-241 239.5,-247 239.5,-247 239.5,-259 239.5,-259 239.5,-265 233.5,-271 227.5,-271"/>
<text text-anchor="middle" x="171.5" y="-256" font-family="Helvetica,sans-Serif" font-size="10.00">Web: ➕ add&#45;lesson</text>
<text text-anchor="middle" x="171.5" y="-245" font-family="Helvetica,sans-Serif" font-size="10.00">(chapter/lesson screens)</text>
</g>
<!-- api_add -->
<g id="node8" class="node">
<title>api_add</title>
<path fill="#dde8ff" stroke="#555577" d="M981,-325C981,-325 846,-325 846,-325 840,-325 834,-319 834,-313 834,-313 834,-301 834,-301 834,-295 840,-289 846,-289 846,-289 981,-289 981,-289 987,-289 993,-295 993,-301 993,-301 993,-313 993,-313 993,-319 987,-325 981,-325"/>
<text text-anchor="middle" x="913.5" y="-310" font-family="Helvetica,sans-Serif" font-size="10.00">POST /api/lessons/add&#45;lesson</text>
<text text-anchor="middle" x="913.5" y="-299" font-family="Helvetica,sans-Serif" font-size="10.00">(async job)</text>
</g>
<!-- web_add&#45;&gt;api_add -->
<g id="edge6" class="edge">
<title>web_add&#45;&gt;api_add</title>
<path fill="none" stroke="#444455" d="M239.6,-256.51C335.06,-261.66 515.52,-271.96 669,-284 720.37,-288.03 777.75,-293.41 823.9,-297.95"/>
<polygon fill="#444455" stroke="#444455" points="823.58,-301.43 833.87,-298.93 824.27,-294.47 823.58,-301.43"/>
</g>
<!-- web_book -->
<g id="node3" class="node">
<title>web_book</title>
<path fill="#e7ffe7" stroke="#555577" d="M235.5,-487C235.5,-487 107.5,-487 107.5,-487 101.5,-487 95.5,-481 95.5,-475 95.5,-475 95.5,-463 95.5,-463 95.5,-457 101.5,-451 107.5,-451 107.5,-451 235.5,-451 235.5,-451 241.5,-451 247.5,-457 247.5,-463 247.5,-463 247.5,-475 247.5,-475 247.5,-481 241.5,-487 235.5,-487"/>
<text text-anchor="middle" x="171.5" y="-472" font-family="Helvetica,sans-Serif" font-size="10.00">Web: PDF u201cbooku201d</text>
<text text-anchor="middle" x="171.5" y="-461" font-family="Helvetica,sans-Serif" font-size="10.00">(generate from pasted text)</text>
</g>
<!-- api_book -->
<g id="node7" class="node">
<title>api_book</title>
<path fill="#dde8ff" stroke="#555577" d="M970,-433C970,-433 857,-433 857,-433 851,-433 845,-427 845,-421 845,-421 845,-409 845,-409 845,-403 851,-397 857,-397 857,-397 970,-397 970,-397 976,-397 982,-403 982,-409 982,-409 982,-421 982,-421 982,-427 976,-433 970,-433"/>
<text text-anchor="middle" x="913.5" y="-418" font-family="Helvetica,sans-Serif" font-size="10.00">POST /api/generate&#45;book</text>
<text text-anchor="middle" x="913.5" y="-407" font-family="Helvetica,sans-Serif" font-size="10.00">(async book job)</text>
</g>
<!-- web_book&#45;&gt;api_book -->
<g id="edge5" class="edge">
<title>web_book&#45;&gt;api_book</title>
<path fill="none" stroke="#444455" d="M247.53,-463.53C388.55,-453.23 691.79,-431.11 834.82,-420.67"/>
<polygon fill="#444455" stroke="#444455" points="835.12,-424.16 844.83,-419.94 834.61,-417.17 835.12,-424.16"/>
</g>
<!-- gen_script -->
<g id="node4" class="node">
<title>gen_script</title>
<path fill="#fff3d6" stroke="#555577" d="M216.5,-433C216.5,-433 126.5,-433 126.5,-433 120.5,-433 114.5,-427 114.5,-421 114.5,-421 114.5,-409 114.5,-409 114.5,-403 120.5,-397 126.5,-397 126.5,-397 216.5,-397 216.5,-397 222.5,-397 228.5,-403 228.5,-409 228.5,-409 228.5,-421 228.5,-421 228.5,-427 222.5,-433 216.5,-433"/>
<text text-anchor="middle" x="171.5" y="-418" font-family="Helvetica,sans-Serif" font-size="10.00">generate&#45;lessons.js</text>
<text text-anchor="middle" x="171.5" y="-407" font-family="Helvetica,sans-Serif" font-size="10.00">(batch, fresh topics)</text>
</g>
<!-- gen_script&#45;&gt;api_gen -->
<g id="edge2" class="edge">
<title>gen_script&#45;&gt;api_gen</title>
<path fill="none" stroke="#444455" d="M228.58,-413.06C340.49,-408.85 599.44,-397.4 816,-375 826.46,-373.92 837.53,-372.54 848.3,-371.06"/>
<polygon fill="#444455" stroke="#444455" points="849.08,-374.49 858.5,-369.63 848.11,-367.56 849.08,-374.49"/>
</g>
<!-- tr_script -->
<g id="node5" class="node">
<title>tr_script</title>
<path fill="#fff3d6" stroke="#555577" d="M228,-325C228,-325 115,-325 115,-325 109,-325 103,-319 103,-313 103,-313 103,-301 103,-301 103,-295 109,-289 115,-289 115,-289 228,-289 228,-289 234,-289 240,-295 240,-301 240,-301 240,-313 240,-313 240,-319 234,-325 228,-325"/>
<text text-anchor="middle" x="171.5" y="-310" font-family="Helvetica,sans-Serif" font-size="10.00">translate&#45;lessons.js</text>
<text text-anchor="middle" x="171.5" y="-299" font-family="Helvetica,sans-Serif" font-size="10.00">(batch, from a template)</text>
</g>
<!-- tr_pre -->
<g id="node9" class="node">
<title>tr_pre</title>
<polygon fill="#ffffff" stroke="#555577" points="663,-329 508,-329 508,-293 669,-293 669,-323 663,-329"/>
<polyline fill="none" stroke="#555577" points="663,-329 663,-323 "/>
<polyline fill="none" stroke="#555577" points="669,-323 663,-323 "/>
<text text-anchor="middle" x="588.5" y="-314" font-family="Helvetica,sans-Serif" font-size="10.00">translate story</text>
<text text-anchor="middle" x="588.5" y="-303" font-family="Helvetica,sans-Serif" font-size="10.00">(translategemma via Ollama)</text>
</g>
<!-- tr_script&#45;&gt;tr_pre -->
<g id="edge3" class="edge">
<title>tr_script&#45;&gt;tr_pre</title>
<path fill="none" stroke="#444455" d="M240.1,-307.65C310.22,-308.33 420.23,-309.39 497.64,-310.13"/>
<polygon fill="#444455" stroke="#444455" points="497.82,-313.64 507.86,-310.23 497.89,-306.64 497.82,-313.64"/>
<text text-anchor="middle" x="425.5" y="-312.8" font-family="Helvetica,sans-Serif" font-size="9.00">userStory = translated story</text>
</g>
<!-- gen -->
<g id="node10" class="node">
<title>gen</title>
<path fill="#cfe0ff" stroke="#555577" stroke-width="2" d="M1179,-465C1179,-465 1135,-465 1135,-465 1129,-465 1123,-459 1123,-453 1123,-453 1123,-441 1123,-441 1123,-435 1129,-429 1135,-429 1135,-429 1179,-429 1179,-429 1185,-429 1191,-435 1191,-441 1191,-441 1191,-453 1191,-453 1191,-459 1185,-465 1179,-465"/>
<text text-anchor="middle" x="1157" y="-444.5" font-family="Helvetica,sans-Serif" font-size="10.00">generate()</text>
</g>
<!-- api_gen&#45;&gt;gen -->
<g id="edge7" class="edge">
<title>api_gen&#45;&gt;gen</title>
<path fill="none" stroke="#444455" d="M968.9,-371.08C980.34,-375.01 991.73,-380.45 1001,-388 1008.1,-393.78 1003.82,-400.32 1011,-406 1015.15,-409.28 1071.88,-424.77 1113.13,-435.74"/>
<polygon fill="#444455" stroke="#444455" points="1112.42,-439.17 1122.98,-438.35 1114.22,-432.4 1112.42,-439.17"/>
</g>
<!-- api_book&#45;&gt;gen -->
<g id="edge8" class="edge">
<title>api_book&#45;&gt;gen</title>
<path fill="none" stroke="#444455" d="M982.18,-426.7C991.84,-428.23 1001.66,-429.71 1011,-431 1045.08,-435.7 1083.81,-439.92 1112.67,-442.84"/>
<polygon fill="#444455" stroke="#444455" points="1112.52,-446.34 1122.82,-443.86 1113.22,-439.38 1112.52,-446.34"/>
<text text-anchor="middle" x="1058" y="-453.8" font-family="Helvetica,sans-Serif" font-size="9.00">per text chunk</text>
<text text-anchor="middle" x="1058" y="-443.8" font-family="Helvetica,sans-Serif" font-size="9.00">(userStory = chunk)</text>
</g>
<!-- g_vocab -->
<g id="node16" class="node">
<title>g_vocab</title>
<path fill="#eef4ff" stroke="#555577" d="M2542.24,-373.5C2542.24,-373.5 2379.24,-373.5 2379.24,-373.5 2373.24,-373.5 2367.24,-367.5 2367.24,-361.5 2367.24,-361.5 2367.24,-344.5 2367.24,-344.5 2367.24,-338.5 2373.24,-332.5 2379.24,-332.5 2379.24,-332.5 2542.24,-332.5 2542.24,-332.5 2548.24,-332.5 2554.24,-338.5 2554.24,-344.5 2554.24,-344.5 2554.24,-361.5 2554.24,-361.5 2554.24,-367.5 2548.24,-373.5 2542.24,-373.5"/>
<text text-anchor="middle" x="2460.74" y="-361.5" font-family="Helvetica,sans-Serif" font-size="10.00">generateOneLesson</text>
<text text-anchor="middle" x="2460.74" y="-350.5" font-family="Helvetica,sans-Serif" font-size="10.00">vocab + sentences</text>
<text text-anchor="middle" x="2460.74" y="-339.5" font-family="Helvetica,sans-Serif" font-size="10.00">(PROMPTS.vocab / vocabFromText)</text>
</g>
<!-- api_add&#45;&gt;g_vocab -->
<g id="edge25" class="edge">
<title>api_add&#45;&gt;g_vocab</title>
<path fill="none" stroke="#339933" stroke-dasharray="1,5" d="M981.62,-325.06C1029.78,-336.44 1096.42,-349 1156,-349 1156,-349 1156,-349 1444.81,-349 1778.36,-349 2173.56,-351.19 2356.86,-352.33"/>
<polygon fill="#339933" stroke="#339933" points="2357.01,-355.83 2367.03,-352.39 2357.05,-348.83 2357.01,-355.83"/>
<text text-anchor="middle" x="1566.81" y="-351.8" font-family="Helvetica,sans-Serif" font-size="9.00">fmt=standard</text>
</g>
<!-- g_gram -->
<g id="node17" class="node">
<title>g_gram</title>
<path fill="#eef4ff" stroke="#555577" d="M2508.24,-201C2508.24,-201 2413.24,-201 2413.24,-201 2407.24,-201 2401.24,-195 2401.24,-189 2401.24,-189 2401.24,-177 2401.24,-177 2401.24,-171 2407.24,-165 2413.24,-165 2413.24,-165 2508.24,-165 2508.24,-165 2514.24,-165 2520.24,-171 2520.24,-177 2520.24,-177 2520.24,-189 2520.24,-189 2520.24,-195 2514.24,-201 2508.24,-201"/>
<text text-anchor="middle" x="2460.74" y="-186" font-family="Helvetica,sans-Serif" font-size="10.00">generateGrammar</text>
<text text-anchor="middle" x="2460.74" y="-175" font-family="Helvetica,sans-Serif" font-size="10.00">(PROMPTS.grammar)</text>
</g>
<!-- api_add&#45;&gt;g_gram -->
<g id="edge26" class="edge">
<title>api_add&#45;&gt;g_gram</title>
<path fill="none" stroke="#339933" stroke-dasharray="1,5" d="M921.13,-288.93C943.87,-230.43 1024.67,-50 1156,-50 1156,-50 1156,-50 2087.02,-50 2171.46,-50 2215.87,-7.97 2276.24,-67 2304.7,-94.83 2258.7,-127.26 2286.24,-156 2312.65,-183.56 2354.74,-190.62 2390.85,-190.64"/>
<polygon fill="#339933" stroke="#339933" points="2390.92,-194.14 2400.85,-190.47 2390.8,-187.14 2390.92,-194.14"/>
<text text-anchor="middle" x="1566.81" y="-52.8" font-family="Helvetica,sans-Serif" font-size="9.00">grammar</text>
</g>
<!-- g_conj -->
<g id="node18" class="node">
<title>g_conj</title>
<path fill="#eef4ff" stroke="#555577" d="M2514.24,-255C2514.24,-255 2407.24,-255 2407.24,-255 2401.24,-255 2395.24,-249 2395.24,-243 2395.24,-243 2395.24,-231 2395.24,-231 2395.24,-225 2401.24,-219 2407.24,-219 2407.24,-219 2514.24,-219 2514.24,-219 2520.24,-219 2526.24,-225 2526.24,-231 2526.24,-231 2526.24,-243 2526.24,-243 2526.24,-249 2520.24,-255 2514.24,-255"/>
<text text-anchor="middle" x="2460.74" y="-240" font-family="Helvetica,sans-Serif" font-size="10.00">generateConjugation</text>
<text text-anchor="middle" x="2460.74" y="-229" font-family="Helvetica,sans-Serif" font-size="10.00">(PROMPTS.conjugation)</text>
</g>
<!-- api_add&#45;&gt;g_conj -->
<g id="edge27" class="edge">
<title>api_add&#45;&gt;g_conj</title>
<path fill="none" stroke="#339933" stroke-dasharray="1,5" d="M935.49,-288.88C975.5,-256.25 1066.7,-191 1156,-191 1156,-191 1156,-191 2087.02,-191 2171.46,-191 2192.67,-195.93 2276.24,-208 2280.72,-208.65 2281.77,-209.21 2286.24,-210 2318.46,-215.73 2354.17,-221.4 2384.78,-226.06"/>
<polygon fill="#339933" stroke="#339933" points="2384.54,-229.56 2394.95,-227.59 2385.59,-222.64 2384.54,-229.56"/>
<text text-anchor="middle" x="1566.81" y="-193.8" font-family="Helvetica,sans-Serif" font-size="9.00">conjugation</text>
</g>
<!-- g_syn -->
<g id="node19" class="node">
<title>g_syn</title>
<path fill="#eef4ff" stroke="#555577" d="M2511.24,-147C2511.24,-147 2410.24,-147 2410.24,-147 2404.24,-147 2398.24,-141 2398.24,-135 2398.24,-135 2398.24,-123 2398.24,-123 2398.24,-117 2404.24,-111 2410.24,-111 2410.24,-111 2511.24,-111 2511.24,-111 2517.24,-111 2523.24,-117 2523.24,-123 2523.24,-123 2523.24,-135 2523.24,-135 2523.24,-141 2517.24,-147 2511.24,-147"/>
<text text-anchor="middle" x="2460.74" y="-132" font-family="Helvetica,sans-Serif" font-size="10.00">generateSynonyms</text>
<text text-anchor="middle" x="2460.74" y="-121" font-family="Helvetica,sans-Serif" font-size="10.00">(PROMPTS.synonyms)</text>
</g>
<!-- api_add&#45;&gt;g_syn -->
<g id="edge28" class="edge">
<title>api_add&#45;&gt;g_syn</title>
<path fill="none" stroke="#339933" stroke-dasharray="1,5" d="M916.5,-288.91C922.44,-243.68 943.93,-124.48 1011,-57 1059.81,-7.89 1086.76,0 1156,0 1156,0 1156,0 2087.02,0 2214.88,0 2354.5,-68.62 2420.71,-105.77"/>
<polygon fill="#339933" stroke="#339933" points="2419.13,-108.9 2429.56,-110.79 2422.59,-102.81 2419.13,-108.9"/>
<text text-anchor="middle" x="1566.81" y="-2.8" font-family="Helvetica,sans-Serif" font-size="9.00">synonyms</text>
</g>
<!-- g_eh -->
<g id="node20" class="node">
<title>g_eh</title>
<path fill="#eef4ff" stroke="#555577" d="M2509.24,-428C2509.24,-428 2412.24,-428 2412.24,-428 2406.24,-428 2400.24,-422 2400.24,-416 2400.24,-416 2400.24,-404 2400.24,-404 2400.24,-398 2406.24,-392 2412.24,-392 2412.24,-392 2509.24,-392 2509.24,-392 2515.24,-392 2521.24,-398 2521.24,-404 2521.24,-404 2521.24,-416 2521.24,-416 2521.24,-422 2515.24,-428 2509.24,-428"/>
<text text-anchor="middle" x="2460.74" y="-413" font-family="Helvetica,sans-Serif" font-size="10.00">generateErrorHunt</text>
<text text-anchor="middle" x="2460.74" y="-402" font-family="Helvetica,sans-Serif" font-size="10.00">(PROMPTS.errorHunt)</text>
</g>
<!-- api_add&#45;&gt;g_eh -->
<g id="edge29" class="edge">
<title>api_add&#45;&gt;g_eh</title>
<path fill="none" stroke="#339933" stroke-dasharray="1,5" d="M987.47,-325.08C992.28,-327.67 996.85,-330.62 1001,-334 1008.1,-339.78 1003.86,-346.27 1011,-352 1063.44,-394.06 1088.78,-395 1156,-395 1156,-395 1156,-395 1949.81,-395 2066.66,-395 2119.91,-339.37 2212.24,-411 2223.68,-419.87 2210.53,-433.48 2222.24,-442 2241.64,-456.13 2252.33,-444.07 2276.24,-442 2314.21,-438.71 2356.12,-431.67 2390.28,-425.03"/>
<polygon fill="#339933" stroke="#339933" points="2391.03,-428.45 2400.16,-423.07 2389.67,-421.58 2391.03,-428.45"/>
<text text-anchor="middle" x="1566.81" y="-397.8" font-family="Helvetica,sans-Serif" font-size="9.00">error_hunt</text>
</g>
<!-- g_math -->
<g id="node21" class="node">
<title>g_math</title>
<path fill="#eef4ff" stroke="#555577" d="M2513.74,-314.5C2513.74,-314.5 2407.74,-314.5 2407.74,-314.5 2401.74,-314.5 2395.74,-308.5 2395.74,-302.5 2395.74,-302.5 2395.74,-285.5 2395.74,-285.5 2395.74,-279.5 2401.74,-273.5 2407.74,-273.5 2407.74,-273.5 2513.74,-273.5 2513.74,-273.5 2519.74,-273.5 2525.74,-279.5 2525.74,-285.5 2525.74,-285.5 2525.74,-302.5 2525.74,-302.5 2525.74,-308.5 2519.74,-314.5 2513.74,-314.5"/>
<text text-anchor="middle" x="2460.74" y="-302.5" font-family="Helvetica,sans-Serif" font-size="10.00">generateMath (no LLM)</text>
<text text-anchor="middle" x="2460.74" y="-291.5" font-family="Helvetica,sans-Serif" font-size="10.00">or generateMathLLM</text>
<text text-anchor="middle" x="2460.74" y="-280.5" font-family="Helvetica,sans-Serif" font-size="10.00">(PROMPTS.math)</text>
</g>
<!-- api_add&#45;&gt;g_math -->
<g id="edge30" class="edge">
<title>api_add&#45;&gt;g_math</title>
<path fill="none" stroke="#339933" stroke-dasharray="1,5" d="M993.14,-294.72C1040.26,-288.4 1101.41,-282 1156,-282 1156,-282 1156,-282 2087.02,-282 2190.44,-282 2309.91,-286.67 2385.14,-290.19"/>
<polygon fill="#339933" stroke="#339933" points="2385.3,-293.7 2395.45,-290.67 2385.63,-286.7 2385.3,-293.7"/>
<text text-anchor="middle" x="1566.81" y="-284.8" font-family="Helvetica,sans-Serif" font-size="9.00">math</text>
</g>
<!-- tr_pre&#45;&gt;api_gen -->
<g id="edge4" class="edge">
<title>tr_pre&#45;&gt;api_gen</title>
<path fill="none" stroke="#444455" d="M669.01,-317.59C712.61,-321.84 767.51,-328.22 816,-337 826.6,-338.92 837.77,-341.33 848.59,-343.87"/>
<polygon fill="#444455" stroke="#444455" points="847.87,-347.3 858.41,-346.24 849.51,-340.5 847.87,-347.3"/>
<text text-anchor="middle" x="751.5" y="-339.8" font-family="Helvetica,sans-Serif" font-size="9.00">userStory = translated story</text>
</g>
<!-- story_q -->
<g id="node11" class="node">
<title>story_q</title>
<path fill="#fffbe6" stroke="#555577" d="M1311.12,-462.76C1311.12,-462.76 1239.88,-449.24 1239.88,-449.24 1233.99,-448.12 1233.99,-445.88 1239.88,-444.76 1239.88,-444.76 1311.12,-431.24 1311.12,-431.24 1317.01,-430.12 1328.8,-430.12 1334.69,-431.24 1334.69,-431.24 1405.92,-444.76 1405.92,-444.76 1411.82,-445.88 1411.82,-448.12 1405.92,-449.24 1405.92,-449.24 1334.69,-462.76 1334.69,-462.76 1328.8,-463.88 1317.01,-463.88 1311.12,-462.76"/>
<text text-anchor="middle" x="1322.9" y="-444.5" font-family="Helvetica,sans-Serif" font-size="10.00">userStory provided?</text>
</g>
<!-- gen&#45;&gt;story_q -->
<g id="edge9" class="edge">
<title>gen&#45;&gt;story_q</title>
<path fill="none" stroke="#444455" d="M1191.17,-447C1199.29,-447 1208.42,-447 1217.98,-447"/>
<polygon fill="#444455" stroke="#444455" points="1218.07,-450.5 1228.07,-447 1218.07,-443.5 1218.07,-450.5"/>
</g>
<!-- use_story -->
<g id="node12" class="node">
<title>use_story</title>
<path fill="#ffffff" stroke="#555577" d="M1651.81,-459C1651.81,-459 1481.81,-459 1481.81,-459 1475.81,-459 1469.81,-453 1469.81,-447 1469.81,-447 1469.81,-435 1469.81,-435 1469.81,-429 1475.81,-423 1481.81,-423 1481.81,-423 1651.81,-423 1651.81,-423 1657.81,-423 1663.81,-429 1663.81,-435 1663.81,-435 1663.81,-447 1663.81,-447 1663.81,-453 1657.81,-459 1651.81,-459"/>
<text text-anchor="middle" x="1566.81" y="-444" font-family="Helvetica,sans-Serif" font-size="10.00">use it as story</text>
<text text-anchor="middle" x="1566.81" y="-433" font-family="Helvetica,sans-Serif" font-size="10.00">(own text / translation / book chunk)</text>
</g>
<!-- story_q&#45;&gt;use_story -->
<g id="edge10" class="edge">
<title>story_q&#45;&gt;use_story</title>
<path fill="none" stroke="#444455" d="M1407.15,-444.94C1423.95,-444.52 1441.82,-444.08 1459.28,-443.64"/>
<polygon fill="#444455" stroke="#444455" points="1459.6,-447.14 1469.51,-443.39 1459.43,-440.14 1459.6,-447.14"/>
<text text-anchor="middle" x="1443.81" y="-446.8" font-family="Helvetica,sans-Serif" font-size="9.00">yes</text>
</g>
<!-- gen_story -->
<g id="node13" class="node">
<title>gen_story</title>
<path fill="#ffffff" stroke="#555577" d="M1642.31,-513C1642.31,-513 1491.31,-513 1491.31,-513 1485.31,-513 1479.31,-507 1479.31,-501 1479.31,-501 1479.31,-489 1479.31,-489 1479.31,-483 1485.31,-477 1491.31,-477 1491.31,-477 1642.31,-477 1642.31,-477 1648.31,-477 1654.31,-483 1654.31,-489 1654.31,-489 1654.31,-501 1654.31,-501 1654.31,-507 1648.31,-513 1642.31,-513"/>
<text text-anchor="middle" x="1566.81" y="-498" font-family="Helvetica,sans-Serif" font-size="10.00">generate story</text>
<text text-anchor="middle" x="1566.81" y="-487" font-family="Helvetica,sans-Serif" font-size="10.00">PROMPTS.story (+ prev chapter)</text>
</g>
<!-- story_q&#45;&gt;gen_story -->
<g id="edge11" class="edge">
<title>story_q&#45;&gt;gen_story</title>
<path fill="none" stroke="#444455" d="M1369.97,-456.14C1398.05,-461.71 1434.99,-469.04 1469.22,-475.83"/>
<polygon fill="#444455" stroke="#444455" points="1468.78,-479.31 1479.27,-477.83 1470.14,-472.45 1468.78,-479.31"/>
<text text-anchor="middle" x="1443.81" y="-473.8" font-family="Helvetica,sans-Serif" font-size="9.00">no</text>
</g>
<!-- meta -->
<g id="node14" class="node">
<title>meta</title>
<path fill="#ffffff" stroke="#555577" d="M1918.81,-464.5C1918.81,-464.5 1712.81,-464.5 1712.81,-464.5 1706.81,-464.5 1700.81,-458.5 1700.81,-452.5 1700.81,-452.5 1700.81,-435.5 1700.81,-435.5 1700.81,-429.5 1706.81,-423.5 1712.81,-423.5 1712.81,-423.5 1918.81,-423.5 1918.81,-423.5 1924.81,-423.5 1930.81,-429.5 1930.81,-435.5 1930.81,-435.5 1930.81,-452.5 1930.81,-452.5 1930.81,-458.5 1924.81,-464.5 1918.81,-464.5"/>
<text text-anchor="middle" x="1815.81" y="-452.5" font-family="Helvetica,sans-Serif" font-size="10.00">meta: topic + emoji</text>
<text text-anchor="middle" x="1815.81" y="-441.5" font-family="Helvetica,sans-Serif" font-size="10.00">PROMPTS.meta, then</text>
<text text-anchor="middle" x="1815.81" y="-430.5" font-family="Helvetica,sans-Serif" font-size="10.00">metaTranslation u2192 name in source lang</text>
</g>
<!-- use_story&#45;&gt;meta -->
<g id="edge12" class="edge">
<title>use_story&#45;&gt;meta</title>
<path fill="none" stroke="#444455" d="M1664.01,-442.17C1672.77,-442.27 1681.72,-442.38 1690.68,-442.49"/>
<polygon fill="#444455" stroke="#444455" points="1690.74,-445.99 1700.78,-442.62 1690.83,-438.99 1690.74,-445.99"/>
</g>
<!-- gen_story&#45;&gt;meta -->
<g id="edge13" class="edge">
<title>gen_story&#45;&gt;meta</title>
<path fill="none" stroke="#444455" d="M1654.54,-477.09C1670.93,-473.71 1688.26,-470.13 1705.24,-466.62"/>
<polygon fill="#444455" stroke="#444455" points="1706.1,-470.02 1715.19,-464.57 1704.69,-463.16 1706.1,-470.02"/>
</g>
<!-- dispatch -->
<g id="node15" class="node">
<title>dispatch</title>
<path fill="#fffbe6" stroke="#555577" d="M2074.16,-457.2C2074.16,-457.2 1979.46,-442.8 1979.46,-442.8 1973.53,-441.9 1973.53,-440.1 1979.46,-439.2 1979.46,-439.2 2074.16,-424.8 2074.16,-424.8 2080.09,-423.9 2091.96,-423.9 2097.89,-424.8 2097.89,-424.8 2192.59,-439.2 2192.59,-439.2 2198.52,-440.1 2198.52,-441.9 2192.59,-442.8 2192.59,-442.8 2097.89,-457.2 2097.89,-457.2 2091.96,-458.1 2080.09,-458.1 2074.16,-457.2"/>
<text text-anchor="middle" x="2086.02" y="-438.5" font-family="Helvetica,sans-Serif" font-size="10.00">dispatch by lessonFormat</text>
</g>
<!-- meta&#45;&gt;dispatch -->
<g id="edge14" class="edge">
<title>meta&#45;&gt;dispatch</title>
<path fill="none" stroke="#444455" d="M1930.94,-442.72C1942.19,-442.6 1953.62,-442.47 1964.93,-442.34"/>
<polygon fill="#444455" stroke="#444455" points="1965.3,-445.84 1975.26,-442.23 1965.22,-438.84 1965.3,-445.84"/>
</g>
<!-- dispatch&#45;&gt;g_vocab -->
<g id="edge15" class="edge">
<title>dispatch&#45;&gt;g_vocab</title>
<path fill="none" stroke="#444455" d="M2202.11,-440.54C2228.74,-435.56 2255.35,-426.09 2276.24,-409 2285.82,-401.16 2276.67,-390.86 2286.24,-383 2306.05,-366.73 2331.5,-357.9 2356.77,-353.39"/>
<polygon fill="#444455" stroke="#444455" points="2357.48,-356.82 2366.82,-351.81 2356.39,-349.9 2357.48,-356.82"/>
<text text-anchor="middle" x="2249.24" y="-436.8" font-family="Helvetica,sans-Serif" font-size="9.00">standard</text>
</g>
<!-- dispatch&#45;&gt;g_vocab -->
<g id="edge21" class="edge">
<title>dispatch&#45;&gt;g_vocab</title>
<path fill="none" stroke="#aa5555" d="M2119.11,-454.03C2160.6,-468.53 2232.7,-485.35 2276.24,-448 2298.42,-428.97 2265.76,-403.86 2286.24,-383 2304.85,-364.04 2330.81,-354.5 2357,-350.16"/>
<polygon fill="#aa5555" stroke="#aa5555" points="2357.62,-353.61 2367.03,-348.75 2356.64,-346.68 2357.62,-353.61"/>
<text text-anchor="middle" x="2249.24" y="-471.8" font-family="Helvetica,sans-Serif" font-size="9.00" fill="#aa5555">all_types</text>
</g>
<!-- dispatch&#45;&gt;g_gram -->
<g id="edge16" class="edge">
<title>dispatch&#45;&gt;g_gram</title>
<path fill="none" stroke="#444455" d="M2094.99,-424.23C2113.11,-387.52 2160.66,-298.98 2222.24,-244 2268.38,-202.8 2338.66,-188.72 2390.81,-184.24"/>
<polygon fill="#444455" stroke="#444455" points="2391.28,-187.72 2400.99,-183.47 2390.75,-180.74 2391.28,-187.72"/>
<text text-anchor="middle" x="2249.24" y="-246.8" font-family="Helvetica,sans-Serif" font-size="9.00">grammar</text>
</g>
<!-- dispatch&#45;&gt;g_gram -->
<g id="edge22" class="edge">
<title>dispatch&#45;&gt;g_gram</title>
<path fill="none" stroke="#aa5555" stroke-dasharray="5,2" d="M2090.7,-423.56C2101.48,-377.3 2137.73,-251.34 2222.24,-198 2272.16,-166.49 2340.36,-165.48 2390.87,-170.74"/>
<polygon fill="#aa5555" stroke="#aa5555" points="2390.71,-174.25 2401.04,-171.91 2391.51,-167.29 2390.71,-174.25"/>
<text text-anchor="middle" x="2249.24" y="-200.8" font-family="Helvetica,sans-Serif" font-size="9.00" fill="#aa5555">all_types</text>
</g>
<!-- dispatch&#45;&gt;g_conj -->
<g id="edge17" class="edge">
<title>dispatch&#45;&gt;g_conj</title>
<path fill="none" stroke="#444455" d="M2096.59,-424.32C2116,-392 2163.21,-320.71 2222.24,-283 2270.74,-252.01 2335.39,-241.02 2384.98,-237.49"/>
<polygon fill="#444455" stroke="#444455" points="2385.25,-240.98 2395.01,-236.87 2384.81,-234 2385.25,-240.98"/>
<text text-anchor="middle" x="2249.24" y="-285.8" font-family="Helvetica,sans-Serif" font-size="9.00">conjugation</text>
</g>
<!-- dispatch&#45;&gt;g_conj -->
<g id="edge23" class="edge">
<title>dispatch&#45;&gt;g_conj</title>
<path fill="none" stroke="#aa5555" stroke-dasharray="5,2" d="M2100.54,-425.1C2123.35,-399.09 2171.94,-347.13 2222.24,-315 2244.08,-301.05 2258.32,-311.72 2276.24,-293 2285.37,-283.45 2276.08,-273.45 2286.24,-265 2313.34,-242.45 2351.32,-234.56 2384.84,-232.68"/>
<polygon fill="#aa5555" stroke="#aa5555" points="2385.23,-236.16 2395.08,-232.28 2384.96,-229.17 2385.23,-236.16"/>
<text text-anchor="middle" x="2249.24" y="-317.8" font-family="Helvetica,sans-Serif" font-size="9.00" fill="#aa5555">all_types</text>
</g>
<!-- dispatch&#45;&gt;g_syn -->
<g id="edge18" class="edge">
<title>dispatch&#45;&gt;g_syn</title>
<path fill="none" stroke="#444455" d="M2089.76,-423.29C2098.55,-372.94 2131.04,-228.32 2222.24,-162 2269.72,-127.47 2336.97,-120.97 2387.79,-122.1"/>
<polygon fill="#444455" stroke="#444455" points="2387.94,-125.6 2398.05,-122.43 2388.17,-118.61 2387.94,-125.6"/>
<text text-anchor="middle" x="2249.24" y="-164.8" font-family="Helvetica,sans-Serif" font-size="9.00">synonyms</text>
</g>
<!-- dispatch&#45;&gt;g_eh -->
<g id="edge19" class="edge">
<title>dispatch&#45;&gt;g_eh</title>
<path fill="none" stroke="#444455" d="M2101.57,-456.74C2132.46,-488.17 2207.39,-553.94 2276.24,-533 2339.25,-513.83 2400.3,-465.03 2433.66,-434.98"/>
<polygon fill="#444455" stroke="#444455" points="2436.12,-437.47 2441.14,-428.14 2431.4,-432.31 2436.12,-437.47"/>
<text text-anchor="middle" x="2249.24" y="-539.8" font-family="Helvetica,sans-Serif" font-size="9.00">error_hunt</text>
</g>
<!-- dispatch&#45;&gt;g_eh -->
<g id="edge24" class="edge">
<title>dispatch&#45;&gt;g_eh</title>
<path fill="none" stroke="#aa5555" stroke-dasharray="5,2" d="M2108.59,-455.59C2143.41,-477.37 2214.39,-514.35 2276.24,-500 2331.2,-487.25 2388.69,-455.61 2424.35,-433.47"/>
<polygon fill="#aa5555" stroke="#aa5555" points="2426.34,-436.35 2432.94,-428.06 2422.61,-430.43 2426.34,-436.35"/>
<text text-anchor="middle" x="2249.24" y="-505.8" font-family="Helvetica,sans-Serif" font-size="9.00" fill="#aa5555">all_types</text>
</g>
<!-- dispatch&#45;&gt;g_math -->
<g id="edge20" class="edge">
<title>dispatch&#45;&gt;g_math</title>
<path fill="none" stroke="#444455" d="M2110.86,-426.69C2161.69,-396.23 2276.87,-327.43 2286.24,-324 2317.84,-312.43 2354.34,-305.26 2385.69,-300.85"/>
<polygon fill="#444455" stroke="#444455" points="2386.23,-304.31 2395.68,-299.51 2385.3,-297.37 2386.23,-304.31"/>
<text text-anchor="middle" x="2249.24" y="-359.8" font-family="Helvetica,sans-Serif" font-size="9.00">math</text>
</g>
<!-- upsert -->
<g id="node23" class="node">
<title>upsert</title>
<path fill="#ffe9e9" stroke="#555577" d="M2790.24,-306.5C2790.24,-306.5 2686.24,-306.5 2686.24,-306.5 2680.24,-306.5 2674.24,-300.5 2674.24,-294.5 2674.24,-294.5 2674.24,-277.5 2674.24,-277.5 2674.24,-271.5 2680.24,-265.5 2686.24,-265.5 2686.24,-265.5 2790.24,-265.5 2790.24,-265.5 2796.24,-265.5 2802.24,-271.5 2802.24,-277.5 2802.24,-277.5 2802.24,-294.5 2802.24,-294.5 2802.24,-300.5 2796.24,-306.5 2790.24,-306.5"/>
<text text-anchor="middle" x="2738.24" y="-294.5" font-family="Helvetica,sans-Serif" font-size="10.00">upsert topic +</text>
<text text-anchor="middle" x="2738.24" y="-283.5" font-family="Helvetica,sans-Serif" font-size="10.00">_syncStorylineForTopic</text>
<text text-anchor="middle" x="2738.24" y="-272.5" font-family="Helvetica,sans-Serif" font-size="10.00">(chains into storyline)</text>
</g>
<!-- g_vocab&#45;&gt;upsert -->
<g id="edge35" class="edge">
<title>g_vocab&#45;&gt;upsert</title>
<path fill="none" stroke="#444455" d="M2554.62,-349.81C2584.65,-346.98 2617.79,-341.93 2647.24,-333 2664,-327.92 2681.31,-319.7 2696.22,-311.55"/>
<polygon fill="#444455" stroke="#444455" points="2698.17,-314.46 2705.16,-306.5 2694.73,-308.36 2698.17,-314.46"/>
</g>
<!-- append -->
<g id="node24" class="node">
<title>append</title>
<path fill="#ffe9e9" stroke="#555577" d="M2799.24,-247C2799.24,-247 2677.24,-247 2677.24,-247 2671.24,-247 2665.24,-241 2665.24,-235 2665.24,-235 2665.24,-223 2665.24,-223 2665.24,-217 2671.24,-211 2677.24,-211 2677.24,-211 2799.24,-211 2799.24,-211 2805.24,-211 2811.24,-217 2811.24,-223 2811.24,-223 2811.24,-235 2811.24,-235 2811.24,-241 2805.24,-247 2799.24,-247"/>
<text text-anchor="middle" x="2738.24" y="-232" font-family="Helvetica,sans-Serif" font-size="10.00">append lesson to</text>
<text text-anchor="middle" x="2738.24" y="-221" font-family="Helvetica,sans-Serif" font-size="10.00">existing topic + saveStore</text>
</g>
<!-- g_vocab&#45;&gt;append -->
<g id="edge41" class="edge">
<title>g_vocab&#45;&gt;append</title>
<path fill="none" stroke="#339933" stroke-dasharray="1,5" d="M2554.5,-355.91C2583.58,-352.36 2613.88,-343.45 2636.24,-324 2659.78,-303.52 2635.54,-279.43 2657.24,-257 2658.62,-255.57 2660.08,-254.22 2661.6,-252.93"/>
<polygon fill="#339933" stroke="#339933" points="2663.66,-255.76 2669.7,-247.06 2659.55,-250.1 2663.66,-255.76"/>
</g>
<!-- g_gram&#45;&gt;upsert -->
<g id="edge36" class="edge">
<title>g_gram&#45;&gt;upsert</title>
<path fill="none" stroke="#444455" d="M2520.41,-175.97C2558.46,-174.86 2606.33,-180.52 2636.24,-210 2655.18,-228.67 2627.59,-250.04 2646.24,-269 2651.43,-274.28 2657.7,-278.21 2664.49,-281.1"/>
<polygon fill="#444455" stroke="#444455" points="2663.43,-284.44 2674.02,-284.44 2665.74,-277.83 2663.43,-284.44"/>
</g>
<!-- g_gram&#45;&gt;append -->
<g id="edge42" class="edge">
<title>g_gram&#45;&gt;append</title>
<path fill="none" stroke="#339933" stroke-dasharray="1,5" d="M2520.48,-180.77C2557.31,-180.62 2605.54,-182.71 2647.24,-192 2662.24,-195.34 2677.95,-200.99 2691.97,-206.87"/>
<polygon fill="#339933" stroke="#339933" points="2690.81,-210.18 2701.37,-210.96 2693.6,-203.76 2690.81,-210.18"/>
</g>
<!-- g_conj&#45;&gt;upsert -->
<g id="edge37" class="edge">
<title>g_conj&#45;&gt;upsert</title>
<path fill="none" stroke="#444455" d="M2526.44,-232.05C2562.55,-232.73 2606.17,-239.73 2636.24,-265 2646.79,-273.87 2633.47,-294.61 2647.24,-294 2652.62,-293.76 2658.19,-293.44 2663.78,-293.07"/>
<polygon fill="#444455" stroke="#444455" points="2664.13,-296.55 2673.86,-292.34 2663.63,-289.57 2664.13,-296.55"/>
</g>
<!-- g_conj&#45;&gt;append -->
<g id="edge43" class="edge">
<title>g_conj&#45;&gt;append</title>
<path fill="none" stroke="#339933" stroke-dasharray="1,5" d="M2526.56,-238.33C2561.22,-236.35 2603.39,-229.44 2636.24,-210 2642.75,-206.15 2639.78,-195.71 2647.24,-197 2660.26,-199.25 2673.9,-203.19 2686.5,-207.57"/>
<polygon fill="#339933" stroke="#339933" points="2685.32,-210.86 2695.91,-210.97 2687.7,-204.28 2685.32,-210.86"/>
</g>
<!-- g_syn&#45;&gt;upsert -->
<g id="edge38" class="edge">
<title>g_syn&#45;&gt;upsert</title>
<path fill="none" stroke="#444455" d="M2523.38,-122.28C2560.7,-121.76 2606.65,-127.95 2636.24,-156 2652.72,-171.62 2642.44,-238.77 2657.24,-256 2659.75,-258.93 2662.58,-261.57 2665.64,-263.96"/>
<polygon fill="#444455" stroke="#444455" points="2663.94,-267.03 2674.2,-269.69 2667.84,-261.22 2663.94,-267.03"/>
</g>
<!-- g_syn&#45;&gt;append -->
<g id="edge44" class="edge">
<title>g_syn&#45;&gt;append</title>
<path fill="none" stroke="#339933" stroke-dasharray="1,5" d="M2523.39,-131.46C2557.68,-134.56 2600.51,-141.33 2636.24,-156 2663.91,-167.36 2691.15,-187.74 2710.35,-204.09"/>
<polygon fill="#339933" stroke="#339933" points="2708.23,-206.88 2718.07,-210.81 2712.82,-201.6 2708.23,-206.88"/>
</g>
<!-- g_eh&#45;&gt;upsert -->
<g id="edge39" class="edge">
<title>g_eh&#45;&gt;upsert</title>
<path fill="none" stroke="#444455" d="M2521.39,-416.65C2559.46,-418.21 2608.7,-415.09 2647.24,-395 2680.77,-377.52 2706.54,-341.59 2721.74,-315.76"/>
<polygon fill="#444455" stroke="#444455" points="2724.96,-317.18 2726.86,-306.75 2718.88,-313.72 2724.96,-317.18"/>
</g>
<!-- g_eh&#45;&gt;append -->
<g id="edge45" class="edge">
<title>g_eh&#45;&gt;append</title>
<path fill="none" stroke="#339933" stroke-dasharray="1,5" d="M2521.64,-417.04C2559.47,-417.98 2606.62,-412.13 2636.24,-383 2656.48,-363.1 2639.02,-278.77 2657.24,-257 2658.11,-255.95 2659.03,-254.94 2659.99,-253.97"/>
<polygon fill="#339933" stroke="#339933" points="2662.58,-256.37 2667.98,-247.25 2658.07,-251.01 2662.58,-256.37"/>
</g>
<!-- g_math&#45;&gt;upsert -->
<g id="edge40" class="edge">
<title>g_math&#45;&gt;upsert</title>
<path fill="none" stroke="#444455" d="M2525.9,-312.42C2561.72,-320.26 2607.08,-326.13 2647.24,-319 2658.52,-317 2670.24,-313.69 2681.35,-309.91"/>
<polygon fill="#444455" stroke="#444455" points="2682.68,-313.15 2690.93,-306.5 2680.33,-306.56 2682.68,-313.15"/>
</g>
<!-- g_math&#45;&gt;append -->
<g id="edge46" class="edge">
<title>g_math&#45;&gt;append</title>
<path fill="none" stroke="#339933" stroke-dasharray="1,5" d="M2525.77,-299.23C2562.55,-298.65 2607.1,-291.35 2636.24,-264 2650.23,-250.87 2631.18,-233.89 2646.24,-222 2649.12,-219.72 2652.23,-217.91 2655.5,-216.51"/>
<polygon fill="#339933" stroke="#339933" points="2656.56,-219.85 2665.09,-213.57 2654.5,-213.15 2656.56,-219.85"/>
</g>
<!-- chain -->
<g id="node22" class="node">
<title>chain</title>
<polygon fill="#f3e8ff" stroke="#555577" points="2146.52,-140.5 2019.52,-140.5 2019.52,-99.5 2152.52,-99.5 2152.52,-134.5 2146.52,-140.5"/>
<polyline fill="none" stroke="#555577" points="2146.52,-140.5 2146.52,-134.5 "/>
<polyline fill="none" stroke="#555577" points="2152.52,-134.5 2146.52,-134.5 "/>
<text text-anchor="middle" x="2086.02" y="-128.5" font-family="Helvetica,sans-Serif" font-size="10.00">collectChainVocab</text>
<text text-anchor="middle" x="2086.02" y="-117.5" font-family="Helvetica,sans-Serif" font-size="10.00">(reinforce / extend from</text>
<text text-anchor="middle" x="2086.02" y="-106.5" font-family="Helvetica,sans-Serif" font-size="10.00">prior chapters)</text>
</g>
<!-- chain&#45;&gt;g_vocab -->
<g id="edge31" class="edge">
<title>chain&#45;&gt;g_vocab</title>
<path fill="none" stroke="#8855aa" stroke-dasharray="5,2" d="M2093.82,-140.74C2109.08,-183.65 2150.46,-281.84 2222.24,-326 2262,-350.46 2312.67,-358.64 2356.99,-360.12"/>
<polygon fill="#8855aa" stroke="#8855aa" points="2357.15,-363.62 2367.22,-360.35 2357.3,-356.63 2357.15,-363.62"/>
</g>
<!-- chain&#45;&gt;g_gram -->
<g id="edge32" class="edge">
<title>chain&#45;&gt;g_gram</title>
<path fill="none" stroke="#8855aa" stroke-dasharray="5,2" d="M2122.22,-99.35C2164,-77.85 2233.37,-52.06 2276.24,-89 2299.04,-108.66 2265.01,-134.64 2286.24,-156 2313.03,-182.96 2354.89,-190.06 2390.77,-190.26"/>
<polygon fill="#8855aa" stroke="#8855aa" points="2391.25,-193.75 2401.21,-190.12 2391.16,-186.75 2391.25,-193.75"/>
</g>
<!-- chain&#45;&gt;g_conj -->
<g id="edge33" class="edge">
<title>chain&#45;&gt;g_conj</title>
<path fill="none" stroke="#8855aa" stroke-dasharray="5,2" d="M2152.86,-134.17C2200.1,-145.54 2258.44,-162.46 2276.24,-180 2286.25,-189.86 2275.5,-200.93 2286.24,-210 2313.14,-232.74 2351.1,-240.45 2384.66,-242.07"/>
<polygon fill="#8855aa" stroke="#8855aa" points="2384.81,-245.58 2394.92,-242.39 2385.03,-238.58 2384.81,-245.58"/>
</g>
<!-- chain&#45;&gt;g_syn -->
<g id="edge34" class="edge">
<title>chain&#45;&gt;g_syn</title>
<path fill="none" stroke="#8855aa" stroke-dasharray="5,2" d="M2122.96,-99.44C2149.46,-85.53 2186.89,-68.38 2222.24,-61 2293.48,-46.13 2374.63,-80.85 2421.24,-105.95"/>
<polygon fill="#8855aa" stroke="#8855aa" points="2419.65,-109.07 2430.09,-110.83 2423.02,-102.94 2419.65,-109.07"/>
</g>
<!-- legend -->
<g id="node25" class="node">
<title>legend</title>
<text text-anchor="start" x="12.5" y="-603" font-family="Helvetica,sans-Serif" font-weight="bold" font-size="10.00">Legend</text>
<text text-anchor="start" x="12.5" y="-586" font-family="Helvetica,sans-Serif" font-size="10.00" fill="#444455">solid</text>
<text text-anchor="start" x="36.5" y="-586" font-family="Helvetica,sans-Serif" font-size="10.00"> = full generate() path (form / batch / book)</text>
<text text-anchor="start" x="12.5" y="-569" font-family="Helvetica,sans-Serif" font-size="10.00" fill="#339933">dotted green</text>
<text text-anchor="start" x="75.5" y="-569" font-family="Helvetica,sans-Serif" font-size="10.00"> = add&#45;lesson (single generator, no story/meta step)</text>
<text text-anchor="start" x="12.5" y="-552" font-family="Helvetica,sans-Serif" font-size="10.00" fill="#aa5555">red dashed</text>
<text text-anchor="start" x="67.5" y="-552" font-family="Helvetica,sans-Serif" font-size="10.00"> = extra lessons added by all_types</text>
<text text-anchor="start" x="12.5" y="-535" font-family="Helvetica,sans-Serif" font-size="10.00" fill="#8855aa">purple dashed</text>
<text text-anchor="start" x="82.5" y="-535" font-family="Helvetica,sans-Serif" font-size="10.00"> = chain vocab (reinforce/extend)</text>
</g>
</g>
</svg>
